<svg xmlns="http://www.w3.org/2000/svg" viewBox="0 0 442.2 28"><path d="M12.9 4.5H8.5l-4.4 23h-4l4.4-23H.1L.8.7h12.7l-.6 3.8zm.8 23H9.6L14.7.6h4.1l-5.1 26.9zm20 0h-4.1l3.5-18.7H33l-6.2 14.8h-2.4L24 8.9h-.1l-3.5 18.7h-3.8L21.7.7H27l.4 14.4h.1L33.4.7h5.5l-5.2 26.8zM52.4 4.4H45L43.6 12h5.9l-.7 3.8h-5.9l-1.5 8h7.4l-.8 3.7H36.6L41.7.6h11.4l-.7 3.8zm18.1.1h-4.3l-4.4 23h-4.1l4.4-23h-4.3l.7-3.8h12.7l-.7 3.8zm13.1 2.6l-2.7 14c-.8 4.2-3.8 6.8-7.9 6.8-4.1 0-6.1-2.6-5.3-6.8l2.7-14c.8-4.2 3.8-6.8 7.8-6.8 4.2 0 6.2 2.5 5.4 6.8zm-9 0l-2.6 14c-.4 2 .3 3.1 1.9 3.1 1.6 0 2.7-1.1 3.1-3.1l2.6-14c.4-2-.3-3.1-1.9-3.1-1.7 0-2.8 1.1-3.1 3.1zm29-2.7h-7.2L94.9 12h5.8l-.7 3.8h-5.8L92 27.5h-4.1L93 .7h11.2l-.6 3.7zm8.6 23.1H108l.3-6.1h-4.5l-2 6.1h-4.1L107.4.6h5.2l-.4 26.9zm-3.4-21.1L105 17.7h3.4l.5-11.3h-.1zm20.7.3l-.5 2.4-4 .2.4-2.2c.4-2.1-.2-3.1-1.7-3.1s-2.5 1-2.8 2.7l-2.8 14.7c-.3 1.8.3 2.7 1.8 2.7s2.5-1 2.9-3.1l.6-3 3.9.2-.6 3.2c-.8 4.1-3.6 6.4-7.6 6.4-4 0-5.8-2.4-5-6.4l2.8-14.7c.8-4.1 3.5-6.4 7.5-6.4 3.9 0 5.8 2.3 5.1 6.4zm13.3-2.2h-4.3l-4.4 23H130l4.4-23H130l.7-3.8h12.7l-.6 3.8zm5.6 11.6h-8.2l.7-3.9h8.2l-.7 3.9zm16.1-9.4l-.5 2.4-4 .2.4-2.2c.4-2.1-.2-3.1-1.7-3.1s-2.5 1-2.8 2.7l-2.8 14.7c-.3 1.8.3 2.7 1.8 2.7s2.5-1 2.9-3.1l.6-3 3.9.2-.6 3.2c-.8 4.1-3.6 6.4-7.6 6.4-4 0-5.8-2.4-5-6.4l2.8-14.7c.8-4.1 3.5-6.4 7.5-6.4s5.9 2.3 5.1 6.4zm11 20.8h-4.1l2.2-11.7h-4.8l-2.2 11.7h-4.1L167.6.6h4.1L169.5 12h4.8L176.4.7h4.1l-5 26.8zm18.6-23.1h-7.4l-1.4 7.6h5.9l-.7 3.8h-5.9l-1.5 8h7.4l-.7 3.8h-11.4L183.5.7h11.4l-.8 3.7zm13.7 2.3l-.5 2.4-4 .2.4-2.2c.4-2.1-.2-3.1-1.7-3.1s-2.5 1-2.8 2.7l-2.8 14.7c-.3 1.8.3 2.7 1.8 2.7s2.5-1 2.9-3.1l.6-3 3.9.2-.6 3.2c-.8 4.1-3.6 6.4-7.6 6.4-4 0-5.8-2.4-5-6.4l2.8-14.7c.8-4.1 3.5-6.4 7.5-6.4s5.9 2.3 5.1 6.4zm9.6 4.6l2.6 16.2h-4.3l-1.8-11.7-2.4 3.5-1.6 8.3h-4.1L210.9.7h4.1l-2.1 11.2h.1L220.8.7h4.3l-7.7 10.6zm21.2 16.2h-4.1l2.2-11.7h-4.8l-2.2 11.7h-4.1L230.7.6h4.1L232.6 12h4.8L239.5.7h4.1l-5 26.8zm6.9 0h-4.1L246.5.6h4.1l-5.1 26.9zm17.7-21.2l-.2.7-4 .4.2-1c.3-1.5-.3-2.3-1.6-2.3s-2.2.8-2.5 2.3l-.1.3c-.3 1.6.1 2.9 2.4 5.2 3.1 3.1 4.1 5.4 3.5 8.6l-.3 1.3c-.7 3.8-3.4 6-7.4 6s-5.9-2.2-5.2-6l.3-1.8 4-.4-.4 1.9c-.3 1.7.3 2.5 1.8 2.5s2.5-.8 2.8-2.5l.2-.9c.3-1.7-.2-3-2.5-5.3-3.1-3.1-4-5.4-3.4-8.5l.1-.6c.7-3.8 3.3-6 7.2-6 4 .1 5.8 2.3 5.1 6.1zm18.3-1.9h-7.2l-1.4 7.6h5.8l-.7 3.8h-5.8L270 27.5h-4.1L271 .7h11.2l-.7 3.7zm8.6 23.1H286l.3-6.1h-4.5l-2 6.1h-4.1L285.4.6h5.2l-.5 26.9zm-3.3-21.1L283 17.7h3.4l.5-11.3h-.1zm20.6.3l-.4 2.4-4 .2.4-2.2c.4-2.1-.2-3.1-1.7-3.1s-2.5 1-2.8 2.7l-2.8 14.7c-.3 1.8.3 2.7 1.8 2.7s2.5-1 2.9-3.1l.6-3 3.9.2-.6 3.2c-.8 4.1-3.6 6.4-7.6 6.4-4 0-5.8-2.4-5-6.4l2.8-14.7c.8-4.1 3.5-6.4 7.5-6.4 3.9 0 5.8 2.3 5 6.4zm13.3-2.2h-4.3l-4.4 23h-4l4.4-23H308l.7-3.8h12.7l-.7 3.8zm5.7 11.6h-8.2l.7-3.9h8.2l-.7 3.9zm16.1-9.4l-.5 2.4-4 .2.4-2.2c.4-2.1-.2-3.1-1.7-3.1s-2.5 1-2.8 2.7l-2.8 14.7c-.3 1.8.3 2.7 1.8 2.7s2.5-1 2.9-3.1l.6-3 3.9.2-.6 3.2c-.8 4.1-3.6 6.4-7.6 6.4-4 0-5.8-2.4-5-6.4l2.8-14.7c.8-4.1 3.5-6.4 7.5-6.4s5.9 2.3 5.1 6.4zm11 20.8h-4.1l2.2-11.7h-4.8l-2.2 11.7h-4.1L345.6.6h4.1L347.5 12h4.8L354.4.7h4.1l-5 26.8zm18.6-23.1h-7.4l-1.4 7.6h5.9l-.7 3.8h-5.9l-1.5 8h7.4l-.7 3.8h-11.4L361.5.7h11.4l-.8 3.7zm13.7 2.3l-.5 2.4-4 .2.4-2.2c.4-2.1-.2-3.1-1.7-3.1s-2.5 1-2.8 2.7l-2.8 14.7c-.3 1.8.3 2.7 1.8 2.7s2.5-1 2.9-3.1l.6-3 3.9.2-.6 3.2c-.8 4.1-3.6 6.4-7.6 6.4-4 0-5.8-2.4-5-6.4l2.8-14.7c.8-4.1 3.5-6.4 7.5-6.4s5.8 2.3 5.1 6.4zm9.5 4.6l2.6 16.2h-4.3l-1.8-11.7-2.4 3.5-1.6 8.3h-4.1L388.8.7h4.1l-2.1 11.2h.1L398.7.7h4.3l-7.7 10.6zm19.3-6.9h-7.4l-1.4 7.6h5.9l-.7 3.8h-5.9l-1.5 8h7.4l-.7 3.8h-11.4L404 .7h11.4l-.8 3.7zm6.7 23.1l-1.1-11.4h-1.9l-2.2 11.4H412L417.1.6h5.9c4.4 0 6.3 2.4 5.5 6.8l-.4 1.9c-.5 2.8-1.9 4.8-4 5.9l1.4 12.2h-4.2zm-.7-23.1l-1.5 8h1.7c2 0 3-1 3.5-3.3l.3-1.4c.4-2.3-.3-3.3-2.2-3.3h-1.8zm21.3 1.9l-.1.7-4 .4.2-1c.3-1.5-.3-2.3-1.6-2.3s-2.2.8-2.5 2.3l-.1.3c-.3 1.6.1 2.9 2.4 5.2 3.1 3.1 4.1 5.4 3.5 8.6l-.3 1.3c-.7 3.8-3.4 6-7.4 6s-5.9-2.2-5.2-6l.3-1.8 4-.4-.4 1.9c-.3 1.7.3 2.5 1.8 2.5s2.5-.8 2.8-2.5l.2-.9c.3-1.7-.2-3-2.5-5.3-3.1-3.1-4-5.4-3.4-8.5l.1-.6c.7-3.8 3.3-6 7.2-6s5.8 2.3 5 6.1z"/></svg>